<?xml version="1.0" encoding="UTF-8"?>
<svg id="_Слой_2" data-name="Слой 2" xmlns="http://www.w3.org/2000/svg" viewBox="0 0 136.56 74.87">
  <defs>
    <style>
      .cls-1 {
        letter-spacing: .05em;
      }

      .cls-2 {
        letter-spacing: 0em;
      }

      .cls-3 {
        font-family: Roboto-Light, Roboto;
        font-weight: 300;
        letter-spacing: .07em;
      }

      .cls-3, .cls-4 {
        font-size: 21px;
      }

      .cls-5 {
        fill: #1d1d1b;
      }

      .cls-4 {
        font-family: Roboto-Bold, Roboto;
        font-weight: 700;
      }
    </style>
  </defs>
  <g id="_Слой_2-2" data-name="Слой 2">
    <g>
      <text class="cls-3" transform="translate(47.73 69.18) rotate(-1.07)"><tspan x="0" y="0">SCHOOL</tspan></text>
      <g>
        <path class="cls-5" d="m29.31,51.07c-2.43-.03-4.46-2.24-5.1-2.93-2.37-2.58-2.48-5.74-2.49-6.72-.02-.92-.03-3.32,1.52-5.64.79-1.19,1.56-2.35,2.93-2.71.98-.26,1.95-.03,3.36-.76.13-.07.93-.48.87-.69-.07-.23-1.19-.14-1.19-.07,0,.19,6.69,2.19,9.33-.43,1.9-1.89.22-4.71,2.6-6.83,1.37-1.22,3.21-1.44,3.9-1.52,1.89-.22,3.39.25,4.12.54,1.78.43,3.23.53,4.23.54,1.19.01,1.03-.1,3.9-.22,1.4-.05,1.92-.05,2.82-.22.67-.13.99-.25,2.49-.76,2.66-.9,4.23-1.4,4.23-1.42,0,0-.14.03-.76.22,30.78-9.08,47.39-13.99,47.39-13.99h0s.5.04,1.41.11c.33.03.84.11,1.41.33,1.57.59,1.91,1.55,3.04,2.28,1.62,1.05,4.18,1.19,4.99.11.68-.91-.05-2.48-.11-2.6-.71-1.47-2.62-.99-3.25-2.82-.87-2.49-1.62-1.71-1.62-1.71,0,0-1.96,0-8.03,1.39-.61.14-4.34,1.47-5.31,2.06-.48.3-1.33.75-4.66,1.63-.9.24-1.65.42-2.17.54-9.14,2.39-18.29,4.77-27.43,7.16-6.84,1.83-11.7,3.19-13.88,4.01-.36.13-1.29.5-2.17.11-1.29-.57-1.63-2.39-1.73-2.93-.36-1.9.37-2.56.33-4.23-.05-1.77-.97-3.88-2.39-4.88-3.38-2.37-9.68,1.55-11.71,2.82-3.94,2.46-3.2,3.41-5.75,4.55-3.72,1.67-5.65-.2-16.05-1.3-6.36-.67-9.01-.33-11.49.87-.64.31-2.84,1.39-4.45,3.36-5.1,6.26-1.17,17.83,2.82,24.29.69,1.11,6.8,10.76,14.86,11.71,2.48.29,5.99-.14,8.46-1.52.41-.23,1.98-1.11,1.84-1.52-.08-.25-.75-.21-1.08-.22Z"/>
        <circle class="cls-5" cx="108.47" cy="3.4" r="1.38"/>
        <circle class="cls-5" cx="112.75" cy="2.31" r="1.38"/>
        <circle class="cls-5" cx="116.66" cy="1.38" r="1.38"/>
      </g>
      <text class="cls-4" transform="translate(31.3 50.52)"><tspan class="cls-1" x="0" y="0">GUI</tspan><tspan class="cls-2" x="37.59" y="0">T</tspan><tspan class="cls-1" x="50.46" y="0">AR</tspan></text>
    </g>
  </g>
</svg>